<svg width="32" height="32" fill="#ffffff" viewBox="0 0 24 24" xmlns="http://www.w3.org/2000/svg">
     <path d="M12 11.977c2.08-2.09 7.28 1.568 0 6.273-7.282-4.705-2.08-8.363 0-6.273Z"></path>
     <path fill-rule="evenodd" d="M6.128 2.132A1.25 1.25 0 0 1 6.688 2h10.625a1.25 1.25 0 0 1 1 .5l3.562 4.75c.081.108.125.24.125.375V20.75A1.25 1.25 0 0 1 20.75 22H3.25A1.25 1.25 0 0 1 2 20.75V7.625c0-.135.044-.267.125-.375L5.688 2.5a1.25 1.25 0 0 1 .44-.368Zm5.247 1.118H6.687L3.876 7h7.5V3.25Zm1.25 0V7h7.5l-2.813-3.75h-4.687Zm8.125 17.5V8.25H3.25v12.5h17.5Z" clip-rule="evenodd"></path>
</svg>